<svg width="16" height="16" viewBox="0 0 12 12" fill="none" xmlns="http://www.w3.org/2000/svg">
<path d="M11.7513 0.856965C11.4201 0.525679 10.8849 0.525679 10.5536 0.856965L6.39981 5.00228L2.24599 0.84847C1.91471 0.517185 1.37955 0.517185 1.04827 0.84847C0.716983 1.17976 0.716983 1.71491 1.04827 2.0462L5.20208 6.20001L1.04827 10.3538C0.716983 10.6851 0.716983 11.2203 1.04827 11.5515C1.37955 11.8828 1.91471 11.8828 2.24599 11.5515L6.39981 7.39773L10.5536 11.5515C10.8849 11.8828 11.4201 11.8828 11.7513 11.5515C12.0826 11.2203 12.0826 10.6851 11.7513 10.3538L7.59753 6.20001L11.7513 2.0462C12.0741 1.7234 12.0741 1.17976 11.7513 0.856965Z" fill="#000"/>
</svg>
